<svg id="Calque_1" data-name="Calque 1" xmlns="http://www.w3.org/2000/svg" viewBox="0 0 534.57 116.57"><defs><style>.logo-1{fill:#174886;}.logo-2{fill:#174888;}.logo-3{fill:#b41f31;}</style></defs><path class="logo-1" d="M329.2,397.9V356c0-2.73.89-3.65,3.62-3.61,6.55.09,13.09.31,19.63.25,3.45,0,6.89-.38,10.34-.27,2.86.08,4,1.53,3.51,4.33a26.61,26.61,0,0,0,.1,7.56c.07.7.62.45,1,.09.8-.85,1.56-1.74,2.35-2.62,1.6-1.77,3.15-3.6,4.81-5.31,3.66-3.76,8.27-5.68,13.31-6.78a39.9,39.9,0,0,1,11.32-.77c5.52.36,10.9,1.58,15.3,5.09a27.4,27.4,0,0,1,9.32,13.41,29.25,29.25,0,0,1,1.37,8.71c0,9.64-.19,19.29.08,28.92.33,11.73,0,23.44.19,35.16,0,2.54-.82,3.36-3.38,3.37-2.78,0-5.57.18-8.33,0a134.31,134.31,0,0,0-13.9-.14c-2.94.06-5.89.16-8.83.18-2.7,0-3.3-.59-3.3-3.21,0-16.65,0-33.29,0-49.94,0-3.88-.43-7.74-2.69-11.19-2.15-3.29-5.18-4.32-8.82-3.82a10.92,10.92,0,0,0-9.17,6.73,6.11,6.11,0,0,0-.57,2.46c-.08,11.9-.35,23.8-.17,35.7.1,6.26.06,12.52.16,18.78.05,3.3-1.17,4.59-4.42,4.47-7.22-.26-14.45-.31-21.68-.2-2.48,0-5,.27-7.46.23s-3.6-1.12-3.6-3.63Z" transform="translate(-41.69 -346.62)"/><path class="logo-2" d="M182.72,412.52V439.4c0,2.88-1.29,4.23-4.22,4.12-7.13-.27-14.27-.27-21.4-.19-2.63,0-5.25.25-7.88.22s-3.92-1.3-3.93-3.88c0-4.69-.12-9.38,0-14.06.52-18.85.16-37.71.16-56.57,0-3.75,0-7.52-.19-11.28a20.77,20.77,0,0,1,.32-3.35c.13-1.24,1.44-2,3.24-2,4.35.06,8.71.19,13.07.24,3.55,0,7.11.16,10.65-.06,2.22-.13,4.43-.18,6.65-.17,2.59,0,3.65,1.16,3.56,3.57-.13,3.22,0,6.45,0,9.68,0,.31-.25.77.29.91s.49-.31.66-.54c1.95-2.63,3.89-5.26,5.85-7.88a20.3,20.3,0,0,1,13.62-8.25,36.07,36.07,0,0,1,8-.48c2.83.17,3.84.23,3.85,3.78q0,14.46,0,28.92c0,1.57,0,1.53-1.38,1a78.07,78.07,0,0,1-7.91-4,18.2,18.2,0,0,0-8.51-2.11,19.77,19.77,0,0,0-9.81,2.85c-.89.52-1.7,1.17-2.59,1.68a4,4,0,0,0-2,3.82Q182.73,398.95,182.72,412.52Z" transform="translate(-41.69 -346.62)"/><path class="logo-3" d="M543.81,443.27h28.68c3,0,3.77.82,3.77,3.83v12.82c0,2.25-1,3.27-3.23,3.27H514.44c-2.17,0-3.21-1-3.22-3.14q0-6.82,0-13.64c0-2.12,1-3.14,3.22-3.14Z" transform="translate(-41.69 -346.62)"/><path class="logo-3" d="M322.69,394a63.15,63.15,0,0,0-2.2-11.82,48.15,48.15,0,0,0-22.56-28.78c-8.73-4.8-18.13-6.79-29.29-6.79a54.52,54.52,0,0,0-8.84.81,52.9,52.9,0,0,0-17.87,6.05,47.53,47.53,0,0,0-19.36,20.06,56.19,56.19,0,0,0-5.93,22.74,58.22,58.22,0,0,0,.83,14.31,52.41,52.41,0,0,0,6.65,17.69,49,49,0,0,0,11.72,13.14,50.42,50.42,0,0,0,17.62,8.8,53.48,53.48,0,0,0,12.43,2,66.61,66.61,0,0,0,8.7-.17,61.78,61.78,0,0,0,13-2.53A49.1,49.1,0,0,0,307,438.35a48.15,48.15,0,0,0,11.33-16.06,55.58,55.58,0,0,0,4.6-20.81A58.19,58.19,0,0,0,322.69,394ZM284,399.11c-.22,6.7-.22,13.44-2.1,20a21.22,21.22,0,0,1-3.11,7,10.57,10.57,0,0,1-10.05,4.23c-4.44-.4-7.36-2.95-8.84-7A66.78,66.78,0,0,1,256.15,404c-.07-1.49-.19-3-.15-4.48a89.39,89.39,0,0,1,3-22.44c2.07-7.83,11.26-11.36,17.67-6.83,3.35,2.38,4.79,5.9,5.59,9.78A81.51,81.51,0,0,1,284,399.11Z" transform="translate(-41.69 -346.62)"/><path class="logo-1" d="M136.82,381.18a33,33,0,0,0-3-12A35.65,35.65,0,0,0,124.69,357a32.82,32.82,0,0,0-9.71-5.92c-6.49-2.52-13.34-3.34-20.27-3.61a88,88,0,0,0-11.24.57,29.8,29.8,0,0,0-4.88.83c-1.7.45-2.2,1.24-2.2,2.93q0,7.15,0,14.32c0,1.15.31,1.68,1,1.71h0c2.41.07,4.5.27,6.77.17h0a10.84,10.84,0,0,1,1.29.21c5.46,1.35,9.78,4.15,12.06,9.52a29.06,29.06,0,0,1,2.08,11.69c0,1.77-.66,2.26-2.36,1.72-2.79-.91-5.46-2.16-8.3-2.93a38.94,38.94,0,0,0-16.06-1.13,44.2,44.2,0,0,0-15.32,5.41A30,30,0,0,0,47.2,402c-3.61,5.47-5.12,11.66-5.47,18.12a33.3,33.3,0,0,0,1.6,11.66,31.2,31.2,0,0,0,11.2,15.95c4.85,3.68,10.6,4.82,16.54,5.09A41.35,41.35,0,0,0,79.8,452a40.81,40.81,0,0,0,15.57-5.73,15.3,15.3,0,0,1,9.09-2.79c5.41.2,10.83.05,16.25.05,4.47,0,8.93.09,13.39,0,3-.08,3.31-.84,3.27-2.8C137.05,420.87,138,401,136.82,381.18ZM97,425.8a13.06,13.06,0,0,1-9.2,3.47c-4.79,0-8.19-2.13-9.44-7.13a13.16,13.16,0,0,1,0-6.45,11.51,11.51,0,0,1,10.07-9,28.64,28.64,0,0,1,4.34-.34c4.34,0,6.15,1.68,6.54,6.07.14,1.66.23,3.34.35,5C100,420.59,99.46,423.54,97,425.8Z" transform="translate(-41.69 -346.62)"/><path class="logo-1" d="M529.53,398.2a32,32,0,0,0-.61-7,66.5,66.5,0,0,0-6.7-20.16,41.88,41.88,0,0,0-13.35-14.91,47.38,47.38,0,0,0-12.7-5.84,57.65,57.65,0,0,0-12.72-2.5,53.69,53.69,0,0,0-10.37.17,48.66,48.66,0,0,0-15.36,4.38,43.71,43.71,0,0,0-13.61,10.38,45.87,45.87,0,0,0-8,12.83,67.84,67.84,0,0,0-5,18.21,56,56,0,0,0-.16,13.63,52,52,0,0,0,3.51,13.68,57.37,57.37,0,0,0,12.08,19.16,10.47,10.47,0,0,0,7.58,3.26c14.21.08,28.42,0,42.63.05.94,0,1.53-.33,1.67-1.33.1-.75.34-1.48.42-2.23a20.42,20.42,0,0,0-.54-8.16,1.46,1.46,0,0,0-1.9-1.1,19.91,19.91,0,0,1-8.31.26,21.7,21.7,0,0,1-19.16-18.31c-.59-3,.26-4.07,3.4-4.07h26.92v0c9,0,18,0,27.05,0,2.41,0,3.42-.69,3.55-3.55C529.92,402.79,529.45,400.51,529.53,398.2ZM494,386.49c-.35,1.81-.8,2.19-2.65,2.19H480.88c-3.5,0-7,0-10.51,0-2.59,0-3.27-.85-2.78-3.38a57.13,57.13,0,0,1,1.91-7.63c2.81-8.23,11.12-9.66,17-6.49A14.62,14.62,0,0,1,494,386.49Z" transform="translate(-41.69 -346.62)"/></svg>
